<?xml version="1.0" encoding="UTF-8"?>
<svg id="Layer_1" data-name="Layer 1" xmlns="http://www.w3.org/2000/svg" viewBox="0 0 119 55.74">
  <path d="M101.9,11.88c-8.81,0-15.54,5.49-16.85,13.23-.69-8.07-6.5-13.29-14.99-13.29-7.69,0-13.15,4.28-14.64,11.07v-10.23h-9.84v16.5c0,3.54-2.1,5.88-5.22,5.88s-5.22-2.34-5.22-5.88V12.66h-9.84v15.34c-1.76-10.43-14.86-10.33-14.86-15.7,0-1.98,1.74-3.36,4.26-3.36s5.28,1.32,7.44,3.54V2.7c-3.12-1.86-6-2.7-9.18-2.7C5.16,0,0,4.8,0,12.06c0,12.48,15.06,12,15.06,18.24,0,2.22-1.92,3.84-4.92,3.84-3.3,0-7.14-1.92-9.84-4.92v11.22c3.18,2.1,6.78,3.12,10.74,3.12,8.38,0,14.01-4.85,14.42-12.28.89,7.2,5.8,11.56,13.22,11.56,3.36,0,5.88-1.02,7.62-3.3-.06,4.68-3.54,7.8-8.58,7.8-2.94,0-6.06-1.08-8.28-2.82v8.7c2.64,1.68,5.46,2.52,9,2.52,8.7,0,14.95-5.04,16.56-13.02v.06h9.84v-16.14c0-3.96,1.92-6.3,5.22-6.3s5.22,2.28,5.22,6.3v16.14h9.84v-11.61c1.43,7.23,7.53,12.45,14.92,12.45,3.96,0,7.14-1.5,9.12-4.02v15.06h9.84v-25.92c0-9.9-7.08-16.86-17.1-16.86ZM101.96,35.1c-4.14,0-7.2-3.12-7.2-7.32s3.06-7.38,7.2-7.38,7.2,3.12,7.2,7.38-3.06,7.32-7.2,7.32Z" fill="#ea580c"/>
</svg>