<?xml version="1.0" encoding="UTF-8"?>
<svg id="Layer_1" data-name="Layer 1" xmlns="http://www.w3.org/2000/svg" viewBox="0 0 160 160">
  <rect width="160" height="160" fill="#ea580c"/>
  <path d="M53.77,115.75v-24.4c5.87,6.52,14.22,10.7,21.4,10.7,6.52,0,10.7-3.52,10.7-8.35,0-13.57-32.75-12.53-32.75-39.67,0-15.79,11.22-26.23,28.19-26.23,6.92,0,13.18,1.83,19.96,5.87v21.27c-4.7-4.83-10.7-7.7-16.18-7.7s-9.27,3-9.27,7.31c0,12.53,32.75,11.35,32.75,39.41,0,17.22-12.53,28.58-31.45,28.58-8.61,0-16.44-2.22-23.36-6.79Z" fill="#fff"/>
</svg>