<?xml version="1.0" encoding="UTF-8"?>
<svg id="Layer_1" data-name="Layer 1" xmlns="http://www.w3.org/2000/svg" viewBox="0 0 127.36 70.99">
  <path d="M105.59,15.12c-5.76,0-10.84,1.85-14.63,4.97-3.34-3.25-8.09-5.09-13.79-5.09-2.6,0-5,.38-7.15,1.11-6.96,2.32-11.43,8.2-11.97,16.22-.05.56-.06,1.11-.06,1.69v4.2c-.38,3.9-2.95,6.4-6.58,6.4-3.98,0-6.65-2.98-6.65-7.48v-21.03h-12.53v19.58c-2.2-13.34-18.93-13.18-18.93-20.03,0-2.53,2.21-4.28,5.43-4.28s6.72,1.67,9.47,4.51V3.44c-3.98-2.37-7.64-3.44-11.69-3.44C6.56,0,0,6.11,0,15.35c0,15.9,19.18,15.3,19.18,23.24,0,2.82-2.45,4.89-6.27,4.89-4.2,0-9.09-2.45-12.53-6.27v14.3c4.04,2.67,8.63,3.98,13.68,3.98,10.6,0,17.78-6.1,18.37-15.46,1.19,9.07,7.45,14.54,16.83,14.54,3.68,0,6.58-.97,8.72-3.07.35-.35.67-.73.99-1.13-.02,1.5-.3,2.87-.84,4.08-1.59,3.63-5.27,5.86-10.09,5.86-3.74,0-7.71-1.37-10.54-3.6v11.1c3.36,2.13,6.96,3.2,11.46,3.2,11.06,0,19.06-6.4,21.11-16.56.22-1.03.37-2.12.45-3.25.05-.68.08-1.4.08-2.12v-16.62c.43-4.17,2.79-6.59,6.58-6.59,4.2,0,6.65,2.9,6.65,8.02v1.11c-.02.18-.02.35-.02.54,0,.18,0,.35.02.53.19,8.53,5.32,15.51,12.53,18.24,2.13.81,4.44,1.26,6.86,1.26,5.05,0,9.09-1.93,11.61-5.13v19.18h12.55v-33.02c0-12.61-9.03-21.48-21.78-21.48ZM105.65,44.7c-5.27,0-9.17-3.98-9.17-9.33s3.9-9.39,9.17-9.39,9.17,3.96,9.17,9.39-3.88,9.33-9.17,9.33Z" fill="#ea580c"/>
</svg>